<?xml version="1.0" encoding="UTF-8"?>
<svg width="137px" height="66px" viewBox="0 0 137 66" version="1.1" xmlns="http://www.w3.org/2000/svg" xmlns:xlink="http://www.w3.org/1999/xlink">
    <!-- Generator: Sketch 50.2 (55047) - http://www.bohemiancoding.com/sketch -->
    <title>Combined Shape</title>
    <desc>Created with Sketch.</desc>
    <defs></defs>
    <g id="Page-1" stroke="none" stroke-width="1" fill="none" fill-rule="evenodd">
        <g fill="#FFFFFF" id="Combined-Shape">
            <path d="M9.6936,20.6547 C9.6936,14.6877 9.6936,13.9227 5.5626,11.1687 L4.1856,10.2507 C3.5736,9.6387 3.5736,7.9557 4.3386,7.4967 C7.8576,6.2727 16.5786,2.2947 19.6386,-0.0003 C20.2506,-0.0003 21.0156,0.3057 21.3216,1.0707 C21.0156,4.5897 21.0156,6.8847 21.0156,8.2617 C21.0156,9.1797 21.6276,9.9447 22.6986,9.9447 C29.1246,5.9667 36.3146,2.1417 44.1186,2.1417 C56.8176,2.1417 62.0196,10.8627 62.0196,21.1137 L62.0196,47.4297 C62.0196,58.4457 62.3256,59.9757 67.8336,60.7407 L71.1996,61.1997 C72.2706,61.9647 71.9646,64.5657 70.8936,65.0247 C66.3036,64.7187 61.8666,64.5657 56.5116,64.5657 C51.0026,64.5657 46.4136,64.7187 42.2826,65.0247 C41.2116,64.5657 40.9056,61.9647 41.9766,61.1997 L44.8836,60.7407 C50.5436,59.8227 50.6976,58.4457 50.6976,47.4297 L50.6976,24.6327 C50.6976,15.9117 46.7196,9.4857 36.3146,9.4857 C30.5016,9.4857 25.4526,11.9337 23.3106,14.8407 C21.3216,17.4417 21.0156,19.5837 21.0156,24.0207 L21.0156,47.4297 C21.0156,58.4457 21.3216,59.8227 26.8296,60.7407 L29.5836,61.1997 C30.6546,61.9647 30.3486,64.5657 29.2776,65.0247 C25.1466,64.7187 20.7096,64.5657 15.3546,64.5657 C9.8466,64.5657 5.2566,64.7187 0.9726,65.0247 C-0.0984,64.5657 -0.4044,61.9647 0.6666,61.1997 L3.8796,60.7407 C9.5406,59.9757 9.6936,58.4457 9.6936,47.4297 L9.6936,20.6547 Z M89.8049,47.666 L89.8049,33.919 L77.5589,33.919 L77.5589,28.941 L89.8049,28.941 L89.8049,16.538 L95.7309,16.538 L95.7309,28.941 L107.9759,28.941 L107.9759,33.919 L95.7309,33.919 L95.7309,47.666 L89.8049,47.666 Z M129.5314,44.4619 C129.5314,51.3579 129.8194,51.5019 134.1284,52.0759 L136.0684,52.3639 C136.5714,52.7949 136.5714,54.2319 135.9244,54.4469 C132.5484,54.3029 129.1724,54.2319 126.0114,54.2319 C122.3474,54.2319 119.0434,54.3029 115.5954,54.4469 C114.9484,54.2319 114.9484,52.7949 115.4524,52.3639 L117.3914,52.0759 C121.7014,51.5019 121.9894,51.3579 121.9894,44.4619 L121.9894,21.6909 C121.9894,16.9489 121.7734,15.2249 118.5404,14.8659 L115.0934,14.5069 C114.6614,14.1479 114.6614,13.0699 115.0204,12.7829 C120.9834,11.6339 126.0114,9.9099 128.9564,8.2569 C129.3874,8.3289 129.6754,8.5449 129.7464,8.9039 C129.6034,10.4119 129.5314,14.7229 129.5314,17.5959 L129.5314,44.4619 Z"></path>
        </g>
    </g>
</svg>